<?xml version="1.0" encoding="UTF-8" standalone="no"?>
<!DOCTYPE svg PUBLIC "-//W3C//DTD SVG 1.1//EN" "http://www.w3.org/Graphics/SVG/1.1/DTD/svg11.dtd">
<svg width="100%" height="100%" viewBox="0 0 1000 1000" version="1.1" xmlns="http://www.w3.org/2000/svg" xmlns:xlink="http://www.w3.org/1999/xlink" xml:space="preserve" xmlns:serif="http://www.serif.com/" style="fill-rule:evenodd;clip-rule:evenodd;stroke-linecap:round;stroke-linejoin:round;stroke-miterlimit:1.5;">
    <g>
        <g id="Face" transform="matrix(1,0,0,1,-0.52777,0)">
            <path d="M487.897,168.522C491.521,168.34 506.254,168.285 510.257,168.592C538.829,170.779 571.21,202.21 586.747,239.423C598.246,266.964 596.703,300.889 589.861,325.084C586.545,340.242 578.794,367.857 575.471,382.191C572.772,393.835 571.106,406.756 566.426,416.532C560.382,429.154 551.049,437.1 542.825,446.24C533.034,457.122 516.191,463.883 498.528,463.114C480.865,463.883 464.022,457.122 454.23,446.24C446.006,437.1 436.674,429.154 430.63,416.532C425.949,406.756 424.283,393.835 421.584,382.191C418.261,367.857 410.51,340.242 407.195,325.084C400.353,300.889 398.809,266.964 410.308,239.423C426.045,201.732 459.061,169.973 487.897,168.522Z" style="fill:rgb(250,170,116);"/>
            <clipPath id="_clip1">
                <path d="M487.897,168.522C491.521,168.34 506.254,168.285 510.257,168.592C538.829,170.779 571.21,202.21 586.747,239.423C598.246,266.964 596.703,300.889 589.861,325.084C586.545,340.242 578.794,367.857 575.471,382.191C572.772,393.835 571.106,406.756 566.426,416.532C560.382,429.154 551.049,437.1 542.825,446.24C533.034,457.122 516.191,463.883 498.528,463.114C480.865,463.883 464.022,457.122 454.23,446.24C446.006,437.1 436.674,429.154 430.63,416.532C425.949,406.756 424.283,393.835 421.584,382.191C418.261,367.857 410.51,340.242 407.195,325.084C400.353,300.889 398.809,266.964 410.308,239.423C426.045,201.732 459.061,169.973 487.897,168.522Z"/>
            </clipPath>
            <g clip-path="url(#_clip1)">
                <g transform="matrix(0.796551,0,0,1.08204,101.425,-13.813)">
                    <path d="M487.897,168.522C491.521,168.34 506.254,168.285 510.257,168.592C538.829,170.779 571.21,202.21 586.747,239.423C598.246,266.964 596.703,300.889 589.861,325.084C586.545,340.242 578.794,367.857 575.471,382.191C572.772,393.835 571.106,406.756 566.426,416.532C560.382,429.154 551.049,437.1 542.825,446.24C533.034,457.122 516.191,463.883 498.528,463.114C480.865,463.883 464.022,457.122 454.23,446.24C446.006,437.1 436.674,429.154 430.63,416.532C425.949,406.756 424.283,393.835 421.584,382.191C418.261,367.857 410.51,340.242 407.195,325.084C400.353,300.889 398.809,266.964 410.308,239.423C426.045,201.732 459.061,169.973 487.897,168.522Z" style="fill:white;fill-opacity:0.28;"/>
                </g>
                <g id="Cheek-Shadow" serif:id="Cheek Shadow" transform="matrix(1,0,0,1.00954,0.52777,-0.376498)">
                    <g>
                        <g transform="matrix(1,0,0,1,-0.803312,16.0911)">
                            <path d="M589.406,296.623C574.353,294.837 529.833,416.268 539.701,427.657C591.4,487.321 654.903,304.397 589.406,296.623Z" style="fill:rgb(250,170,116);"/>
                        </g>
                        <g transform="matrix(-1,0,0,1,997.884,16.0911)">
                            <path d="M589.406,296.623C573.034,294.803 528.976,416.506 539.701,427.657C594.429,484.555 654.959,303.912 589.406,296.623Z" style="fill:rgb(250,170,116);"/>
                        </g>
                    </g>
                </g>
            </g>
            <path d="M487.897,168.522C491.521,168.34 506.254,168.285 510.257,168.592C538.829,170.779 571.21,202.21 586.747,239.423C598.246,266.964 596.703,300.889 589.861,325.084C586.545,340.242 578.794,367.857 575.471,382.191C572.772,393.835 571.106,406.756 566.426,416.532C560.382,429.154 551.049,437.1 542.825,446.24C533.034,457.122 516.191,463.883 498.528,463.114C480.865,463.883 464.022,457.122 454.23,446.24C446.006,437.1 436.674,429.154 430.63,416.532C425.949,406.756 424.283,393.835 421.584,382.191C418.261,367.857 410.51,340.242 407.195,325.084C400.353,300.889 398.809,266.964 410.308,239.423C426.045,201.732 459.061,169.973 487.897,168.522Z" style="fill:none;stroke:black;stroke-width:6.25px;"/>
        </g>
        <g id="Nose">
            <path d="M483.821,346.542C478.91,351.79 475.983,356.956 479.735,361.848C481.542,363.752 484.113,364.212 487.485,363.065C490.056,365.283 493.266,367.125 497.47,368.593L499.031,368.593C503.235,367.125 506.444,365.283 509.016,363.065C512.388,364.212 514.959,363.752 516.766,361.848C520.517,356.956 517.59,351.79 512.679,346.542" style="fill:none;stroke:black;stroke-width:5.42px;"/>
        </g>
        <g id="Mouth">
            <path d="M530.722,394.667C530.548,396.676 528.673,398.069 526.853,399.59C524.319,401.706 521.317,403.739 518.058,405.102C512.544,407.409 505.95,409.009 499.265,409.046C493.131,409.08 486.919,407.708 481.396,406.286C476.3,404.973 472.655,402.498 469.749,400.132C467.535,398.33 465.306,396.889 465.79,394.319C474.122,387.963 485.253,383.49 498.693,387.913C510.644,384.069 521.329,386.731 530.722,394.667Z" style="fill:rgb(246,163,140);"/>
            <path d="M467.294,393.429C467.994,393.428 468.558,394.858 469.26,394.876C479.248,395.133 489.529,395.698 499.499,395.607C508.587,395.524 516.545,394.862 526.554,394.993C526.876,394.997 528.452,393.894 528.775,393.902" style="fill:none;stroke:black;stroke-width:6.25px;"/>
        </g>
        <g id="Mouth-Wrinkles" serif:id="Mouth Wrinkles" transform="matrix(1,0,0,1,-8.22338,9.97601)">
            <g opacity="0.59">
                <g transform="matrix(1,0,0,-1,-49.3206,702.019)">
                    <path d="M511.952,311.128C512.319,316.014 517.375,333.376 524.787,335.048" style="fill:none;stroke:rgb(250,170,116);stroke-width:4.17px;stroke-miterlimit:4;"/>
                </g>
                <g transform="matrix(-1,0,0,-1,1062.42,702.019)">
                    <path d="M511.952,311.128C512.319,316.014 517.375,333.376 524.787,335.048" style="fill:none;stroke:rgb(250,170,116);stroke-width:4.17px;stroke-miterlimit:4;"/>
                </g>
            </g>
        </g>
        <g id="Eyes" transform="matrix(1,0,0,1,-8.22338,-15.024)">
            <g transform="matrix(0.999391,-0.0348995,0.0348995,0.999391,-10.6428,14.314)">
                <g transform="matrix(0.903923,0,0,1.0698,37.1147,-34.2008)">
                    <ellipse cx="475.203" cy="330.502" rx="7.785" ry="6.871" style="fill:rgb(92,48,39);"/>
                    <path d="M475.203,323.631C479.499,323.631 482.988,326.709 482.988,330.502C482.988,334.294 479.499,337.373 475.203,337.373C470.906,337.373 467.418,334.294 467.418,330.502C467.418,326.709 470.906,323.631 475.203,323.631ZM475.203,327.136C477.261,327.136 478.839,328.685 478.839,330.502C478.839,332.318 477.261,333.867 475.203,333.867C473.144,333.867 471.567,332.318 471.567,330.502C471.567,328.685 473.144,327.136 475.203,327.136Z"/>
                </g>
                <g transform="matrix(1,0,0,1,0.0564878,0.62005)">
                    <path d="M445.802,321.466C460.276,308.993 476.226,308.662 486.956,321.602" style="fill:none;stroke:black;stroke-width:6.25px;stroke-linecap:butt;stroke-linejoin:miter;"/>
                </g>
            </g>
            <g transform="matrix(0.999391,0.0348995,-0.0348995,0.999391,11.5089,-20.312)">
                <g transform="matrix(-0.933812,0,0,1.04746,989.761,-26.6733)">
                    <ellipse cx="475.203" cy="330.502" rx="7.785" ry="6.871" style="fill:rgb(92,48,39);"/>
                    <path d="M475.203,323.631C479.499,323.631 482.988,326.709 482.988,330.502C482.988,334.294 479.499,337.373 475.203,337.373C470.906,337.373 467.418,334.294 467.418,330.502C467.418,326.709 470.906,323.631 475.203,323.631ZM475.203,327.211C473.134,327.211 471.434,328.675 471.434,330.502C471.434,332.328 473.134,333.792 475.203,333.792C477.272,333.792 478.972,332.328 478.972,330.502C478.972,328.675 477.272,327.211 475.203,327.211Z"/>
                </g>
                <g transform="matrix(-1,0,0,1,1012.81,0.62005)">
                    <path d="M445.802,321.466C460.276,308.993 476.226,308.662 486.956,321.602" style="fill:none;stroke:black;stroke-width:6.25px;stroke-linecap:butt;stroke-linejoin:miter;"/>
                </g>
            </g>
        </g>
        <g id="Forehead-Reflection" serif:id="Forehead Reflection" transform="matrix(1,0,0,1,-8.22338,-20.024)">
            <g>
                <path d="M620.332,205.938C620.331,221.545 567.614,276.921 570.488,291.85L561.592,300.968L527.778,302.555C524.116,303.951 519.526,308.812 513.965,317.305C508.883,315.527 503.959,315.479 499.222,317.469C494.89,310.568 490.575,305.023 486.304,302.937C472.33,298.022 459.405,298.428 447.306,303.032L441.611,294.601C445.69,277.612 372.954,220.07 373.462,202.572L497.839,173.46L620.332,205.938Z" style="fill:url(#_Linear2);"/>
            </g>
        </g>
        <g id="Nose-Side" serif:id="Nose Side" transform="matrix(1.02053,0.12041,-0.12041,1.02053,18.4406,-74.3221)">
            <path d="M513.718,304.01C513.969,308.591 512.947,323.471 512.604,327.539C511.917,335.69 519.82,347.924 526.105,346.041L513.718,304.01Z" style="fill:rgb(250,170,116);"/>
            <g transform="matrix(0.966433,-0.114028,-0.114028,-0.966433,84.2947,902.656)">
                <path d="M487.839,427.197C499.254,431.46 510.668,431.847 522.083,426.574" style="fill:none;stroke:rgb(250,170,116);stroke-width:4.17px;stroke-miterlimit:4;"/>
            </g>
        </g>
        <g id="Layer5">
            <path d="M509.54,290.675C530.658,285.545 547.483,284.613 569.321,288.154C557.054,277.919 535.095,277.338 513.528,282.701C509.034,283.818 510.358,286.864 509.54,290.675Z" style="fill:rgb(74,30,12);stroke:rgb(74,30,12);stroke-width:5px;"/>
            <g transform="matrix(-1,0,0,1,995.861,0)">
                <path d="M509.54,290.675C530.658,285.545 547.483,284.613 569.321,288.154C557.054,277.919 535.095,277.338 513.528,282.701C509.034,283.818 510.358,286.864 509.54,290.675Z" style="fill:rgb(74,30,12);stroke:rgb(74,30,12);stroke-width:5px;"/>
            </g>
        </g>
        <g id="Wrinkles" transform="matrix(1,0,0,1,-8.22338,-20.024)">
            <g opacity="0.59">
                <g transform="matrix(1,0,0,1.20414,0,-56.5182)">
                    <g id="Upper-Wrinkles" serif:id="Upper Wrinkles">
                        <g id="Under-Eye-Wrinkles-1" serif:id="Under Eye Wrinkles 1">
                            <g transform="matrix(1,0,0,1,1.67944,2.43465)">
                                <path d="M515.193,318.505C519.154,322.682 524.472,326.002 529.833,328.079" style="fill:none;stroke:rgb(250,170,116);stroke-width:3.76px;stroke-miterlimit:4;"/>
                            </g>
                            <g transform="matrix(-1,0,0,1,1010.71,2.43465)">
                                <path d="M515.193,318.505C519.154,322.682 524.472,326.002 529.833,328.079" style="fill:none;stroke:rgb(250,170,116);stroke-width:3.76px;stroke-miterlimit:4;"/>
                            </g>
                        </g>
                    </g>
                </g>
            </g>
        </g>
        <g id="Hair-Top" serif:id="Hair Top">
            <path d="M402.642,367.231C386.155,349.258 376.138,330.02 372.044,309.241C369.063,294.109 368.686,278.121 373.873,261.396C378.733,245.723 388.532,229.33 401.164,212.183C424.396,187.939 443.551,172.387 454.47,170.223C461.336,168.745 467.86,168.213 473.949,168.88C474.098,166.845 475.614,164.81 479.128,162.775C488.091,161.388 496.269,163.672 503.178,166.27C507.328,167.829 514.1,164.551 522.685,166.075C530.192,169.4 536.961,171.264 542.662,172.023C555.295,173.705 562.708,183.841 571.038,190.882C576.631,195.611 582.826,199.881 586.736,205.779C595.14,218.456 600.161,233.13 608.451,244.232C610.262,248.055 607.772,257.071 609.939,260.449C626.205,285.809 618.942,313.64 607.446,345.796L602.778,328.141L595.845,348.602L593.976,328.79L581.491,359.205C583.059,338.998 583.406,318.791 581.344,298.584C573.343,300.687 567.124,294.489 561.094,287.411C570.777,278.619 573.089,270.126 565.59,262.029C555.087,275.303 524.04,272.986 493.194,270.821C484.555,272.296 475.934,276.791 467.254,278.537C451.248,281.758 434.992,283.5 417.705,295.24C416.23,299.562 416.741,303.993 415.722,308.111C413.887,315.525 411.387,321.769 410.7,328.4C409.162,343.236 411.815,356.795 416.674,366.918L401.079,350.497L402.642,367.231Z" style="fill:rgb(74,30,12);stroke:black;stroke-width:5px;"/>
            <g opacity="0.62">
                <path d="M520.033,186.539C527.071,194.252 530.971,210.397 529.083,225.207C526.988,241.648 515.568,257.008 506.024,259.298C507.148,259.487 519.488,242.615 523.095,223.87C525.659,210.538 523.15,196.026 520.033,186.539Z" style="fill:white;"/>
                <g transform="matrix(0.735162,0.0975745,-0.0680299,0.512562,168.615,76.2026)">
                    <path d="M520.033,186.539C527.071,194.252 530.971,210.397 529.083,225.207C526.988,241.648 515.568,257.008 506.024,259.298C507.148,259.487 519.488,242.615 523.095,223.87C525.659,210.538 523.15,196.026 520.033,186.539Z" style="fill:white;"/>
                </g>
                <g transform="matrix(1,0,0,1,8.29514,2.82137)">
                    <path d="M519.166,177.207C523.739,177.55 530.331,182.872 534.663,188.202C540.437,195.306 543.506,205.972 540.785,214.583C541.643,211.593 536.898,199.739 531.811,192.984C526.659,186.143 521.471,179.759 519.166,177.207Z" style="fill:white;"/>
                </g>
                <g transform="matrix(1,0,0,1,42.6757,21.9507)">
                    <path d="M519.166,177.207C523.739,177.55 532.887,184.482 537.219,189.812C542.993,196.916 546.254,202.986 543.533,211.597C544.392,208.607 539.148,199.116 534.061,192.361C528.91,185.521 521.471,179.759 519.166,177.207Z" style="fill:white;"/>
                </g>
                <g transform="matrix(0.565374,0.824835,-0.824835,0.565374,414.728,-311.795)">
                    <path d="M519.166,177.207C523.739,177.55 532.887,184.482 537.219,189.812C542.993,196.916 546.254,202.986 543.533,211.597C544.392,208.607 539.148,199.116 534.061,192.361C528.91,185.521 521.471,179.759 519.166,177.207Z" style="fill:white;"/>
                </g>
                <g transform="matrix(0.380055,1.46934,-1.66714,0.431217,609.747,-622.756)">
                    <path d="M519.166,177.207C523.739,177.55 532.887,184.482 537.219,189.812C542.993,196.916 546.254,202.986 543.533,211.597C544.392,208.607 539.148,199.116 534.061,192.361C528.91,185.521 521.471,179.759 519.166,177.207Z" style="fill:white;"/>
                </g>
                <g transform="matrix(0.793852,1.29353,-1.46765,0.900717,352.7,-647.37)">
                    <path d="M519.166,177.207C523.739,177.55 532.887,184.482 537.219,189.812C542.993,196.916 546.254,202.986 543.533,211.597C544.392,208.607 539.148,199.116 534.061,192.361C528.91,185.521 521.471,179.759 519.166,177.207Z" style="fill:white;"/>
                </g>
                <g transform="matrix(0.441277,1.09672,-1.35018,0.543256,495.778,-482.299)">
                    <path d="M519.166,177.207C523.739,177.55 532.887,184.482 537.219,189.812C542.993,196.916 546.254,202.986 543.533,211.597C544.392,208.607 539.148,199.116 534.061,192.361C528.91,185.521 521.471,179.759 519.166,177.207Z" style="fill:white;"/>
                </g>
                <g transform="matrix(-1.1389,-0.316922,-0.390162,1.4021,1123.96,101.349)">
                    <path d="M519.166,177.207C523.739,177.55 532.887,184.482 537.219,189.812C542.993,196.916 546.254,202.986 543.533,211.597C544.392,208.607 539.148,199.116 534.061,192.361C528.91,185.521 521.471,179.759 519.166,177.207Z" style="fill:white;"/>
                </g>
                <g transform="matrix(-1.30226,0.397574,0.50779,1.66327,1035.64,-292.978)">
                    <path d="M519.166,177.207C523.739,177.55 532.887,184.482 537.219,189.812C542.993,196.916 546.254,202.986 543.533,211.597C544.392,208.607 539.148,199.116 534.061,192.361C528.91,185.521 521.471,179.759 519.166,177.207Z" style="fill:white;"/>
                </g>
                <g transform="matrix(-1.3524,-0.157996,-0.201796,1.72731,1221.83,-4.11694)">
                    <path d="M519.166,177.207C523.739,177.55 532.887,184.482 537.219,189.812C542.993,196.916 546.254,202.986 543.533,211.597C544.392,208.607 539.148,199.116 534.061,192.361C528.91,185.521 521.471,179.759 519.166,177.207Z" style="fill:white;"/>
                </g>
                <g transform="matrix(-0.710503,0.0338785,0.046242,0.969791,790.266,39.9371)">
                    <path d="M519.166,177.207C523.739,177.55 532.887,184.482 537.219,189.812C542.993,196.916 546.254,202.986 543.533,211.597C544.392,208.607 539.148,199.116 534.061,192.361C528.91,185.521 521.471,179.759 519.166,177.207Z" style="fill:white;"/>
                </g>
                <g transform="matrix(-0.961832,0.489375,0.681205,1.33886,784.574,-263.408)">
                    <path d="M519.166,177.207C523.739,177.55 532.887,184.482 537.219,189.812C542.993,196.916 546.254,202.986 543.533,211.597C544.392,208.607 539.148,199.116 534.061,192.361C528.91,185.521 521.471,179.759 519.166,177.207Z" style="fill:white;"/>
                </g>
                <g transform="matrix(-0.721812,0.367254,0.373537,0.73416,700.925,-61.4192)">
                    <path d="M519.166,177.207C523.739,177.55 532.887,184.482 537.219,189.812C542.993,196.916 546.254,202.986 543.533,211.597C544.392,208.607 539.148,199.116 534.061,192.361C528.91,185.521 521.471,179.759 519.166,177.207Z" style="fill:white;"/>
                </g>
                <g transform="matrix(-0.612365,0.311568,0.181709,0.357136,707.064,44.5032)">
                    <path d="M519.166,177.207C523.739,177.55 532.887,184.482 537.219,189.812C542.993,196.916 546.254,202.986 543.533,211.597C544.392,208.607 539.148,199.116 534.061,192.361C528.91,185.521 521.471,179.759 519.166,177.207Z" style="fill:white;"/>
                </g>
                <g transform="matrix(-0.433771,0.915107,0.609347,0.288837,512.824,-229.477)">
                    <path d="M519.166,177.207C523.739,177.55 532.887,184.482 537.219,189.812C542.993,196.916 546.254,202.986 543.533,211.597C544.392,208.607 539.148,199.116 534.061,192.361C528.91,185.521 521.471,179.759 519.166,177.207Z" style="fill:white;"/>
                </g>
                <g transform="matrix(-0.511059,1.07816,0.753038,0.356948,517.645,-319.72)">
                    <path d="M519.166,177.207C523.739,177.55 532.887,184.482 537.219,189.812C542.993,196.916 546.254,202.986 543.533,211.597C544.392,208.607 539.148,199.116 534.061,192.361C528.91,185.521 521.471,179.759 519.166,177.207Z" style="fill:white;"/>
                </g>
                <g transform="matrix(0.522055,0.316154,-0.422351,0.697416,379.436,-60.2078)">
                    <path d="M519.166,177.207C523.739,177.55 532.887,184.482 537.219,189.812C542.993,196.916 546.254,202.986 543.533,211.597C544.392,208.607 539.148,199.116 534.061,192.361C528.91,185.521 521.471,179.759 519.166,177.207Z" style="fill:white;"/>
                </g>
                <g transform="matrix(0.452461,0.409601,-0.547189,0.604446,455.444,-79.2288)">
                    <path d="M519.166,177.207C523.739,177.55 532.887,184.482 537.219,189.812C542.993,196.916 546.254,202.986 543.533,211.597C544.392,208.607 539.148,199.116 534.061,192.361C528.91,185.521 521.471,179.759 519.166,177.207Z" style="fill:white;"/>
                </g>
                <g transform="matrix(0.356043,0.49571,-0.662221,0.47564,534.374,-75.9739)">
                    <path d="M519.166,177.207C523.739,177.55 532.887,184.482 537.219,189.812C542.993,196.916 546.254,202.986 543.533,211.597C544.392,208.607 539.148,199.116 534.061,192.361C528.91,185.521 521.471,179.759 519.166,177.207Z" style="fill:white;"/>
                </g>
                <g transform="matrix(0.550771,0.299636,-0.450644,0.828345,402.015,-17.4244)">
                    <path d="M519.166,177.207C523.739,177.55 532.887,184.482 537.219,189.812C542.993,196.916 546.254,202.986 543.533,211.597C544.392,208.607 539.148,199.116 534.061,192.361C528.91,185.521 521.471,179.759 519.166,177.207Z" style="fill:white;"/>
                </g>
                <g transform="matrix(0.424354,0.461577,-0.6942,0.638217,503.566,-63.0287)">
                    <path d="M519.166,177.207C523.739,177.55 532.887,184.482 537.219,189.812C542.993,196.916 546.254,202.986 543.533,211.597C544.392,208.607 539.148,199.116 534.061,192.361C528.91,185.521 521.471,179.759 519.166,177.207Z" style="fill:white;"/>
                </g>
            </g>
        </g>
        <g transform="matrix(1,0,0,1,-8.22338,-5.02399)">
            <g opacity="0">
                <g id="Ears" transform="matrix(1,0,0,1,-3,0)">
                    <g id="Ears-2" serif:id="Ears 2">
                        <g id="Left-Ear" serif:id="Left Ear" transform="matrix(-1,0,0,1,1019.32,-22.1421)">
                            <path d="M588.585,341.542C593.233,337.498 599.257,333.729 608.539,330.609C616.121,329.517 617.573,344.324 615.997,363.551C615.603,368.359 615.458,374.987 614.66,379.91C614.747,386.852 604.829,394.314 595.859,396.946C589.414,398.836 583.448,398.145 582.085,393.384C579.128,383.054 588.585,341.542 588.585,341.542Z" style="fill:rgb(120,44,21);stroke:black;stroke-width:5px;stroke-miterlimit:4;"/>
                        </g>
                        <g id="Right-Ear" serif:id="Right Ear" transform="matrix(1,0,0,1,0.240088,-22.1421)">
                            <path d="M588.585,341.542C593.233,337.498 599.257,333.729 608.539,330.609C616.121,329.517 617.573,344.324 615.997,363.551C615.603,368.359 615.458,374.987 614.66,379.91C614.747,386.852 604.829,394.314 595.859,396.946C589.414,398.836 583.448,398.145 582.085,393.384C579.128,383.054 588.585,341.542 588.585,341.542Z" style="fill:rgb(120,44,21);stroke:black;stroke-width:5px;stroke-miterlimit:4;"/>
                        </g>
                    </g>
                </g>
                <g id="Arms" transform="matrix(0.86578,0,0,0.91816,106.008,63.0382)">
                    <g>
                        <g id="Right-Arm" serif:id="Right Arm" transform="matrix(1,0,0,1,-9.24022,0)">
                            <path d="M789.806,770.263C789.806,770.263 775.006,842.891 774.552,851.414C774.099,859.937 653.139,852.788 653.139,852.788L652.871,829.938L657.768,786.927L789.806,770.263Z" style="fill:rgb(120,44,21);"/>
                            <clipPath id="_clip3">
                                <path d="M789.806,770.263C789.806,770.263 775.006,842.891 774.552,851.414C774.099,859.937 653.139,852.788 653.139,852.788L652.871,829.938L657.768,786.927L789.806,770.263Z"/>
                            </clipPath>
                            <g clip-path="url(#_clip3)">
                                <g id="Right-Arm-Reflection" serif:id="Right Arm Reflection" transform="matrix(1.15503,0,0,1.08913,82.9783,509.308)">
                                    <path d="M583.087,332.03C584.144,347.777 475.557,347.777 476.614,332.03C477.067,325.268 477.803,320.17 479.533,315.911C481.48,311.117 484.548,307.194 487.222,299.498C493.313,281.961 489.831,256.687 490.44,237.402L554.547,228.193L596.119,232.699C596.728,251.984 582.634,325.268 583.087,332.03Z" style="fill:white;fill-opacity:0.15;"/>
                                </g>
                            </g>
                            <path d="M789.806,770.263C789.806,770.263 775.006,842.891 774.552,851.414C774.099,859.937 653.139,852.788 653.139,852.788L652.871,829.938L657.768,786.927L789.806,770.263Z" style="fill:none;stroke:black;stroke-width:3.27px;stroke-miterlimit:4;"/>
                        </g>
                        <g id="Left-Arm" serif:id="Left Arm" transform="matrix(-1,0,0,1,937.93,0)">
                            <path d="M789.806,770.263C789.806,770.263 775.006,842.891 774.552,851.414C774.099,859.937 653.139,852.788 653.139,852.788L652.871,829.938L657.768,786.927L789.806,770.263Z" style="fill:rgb(120,44,21);"/>
                            <clipPath id="_clip4">
                                <path d="M789.806,770.263C789.806,770.263 775.006,842.891 774.552,851.414C774.099,859.937 653.139,852.788 653.139,852.788L652.871,829.938L657.768,786.927L789.806,770.263Z"/>
                            </clipPath>
                            <g clip-path="url(#_clip4)">
                                <g id="Left-Arm-Reflection" serif:id="Left Arm Reflection" transform="matrix(1.15503,0,0,1.08913,82.9783,509.308)">
                                    <path d="M583.087,332.03C584.144,347.777 475.557,347.777 476.614,332.03C477.067,325.268 477.803,320.17 479.533,315.911C481.48,311.117 484.548,307.194 487.222,299.498C493.313,281.961 489.831,256.687 490.44,237.402L554.547,228.193L596.119,232.699C596.728,251.984 582.634,325.268 583.087,332.03Z" style="fill:white;fill-opacity:0.15;"/>
                                </g>
                            </g>
                            <path d="M789.806,770.263C789.806,770.263 775.006,842.891 774.552,851.414C774.099,859.937 653.139,852.788 653.139,852.788L652.871,829.938L657.768,786.927L789.806,770.263Z" style="fill:none;stroke:black;stroke-width:3.27px;stroke-miterlimit:4;"/>
                        </g>
                    </g>
                </g>
                <g id="Neck" transform="matrix(0.931256,0,0,1,35.5428,0)">
                    <g>
                        <path id="Neck-Base" serif:id="Neck Base" d="M431.817,396.085L431.661,536.582L579.697,537.77L581.154,394.253L431.817,396.085Z" style="fill:rgb(120,44,21);"/>
                        <clipPath id="_clip5">
                            <path id="Neck-Base1" serif:id="Neck Base" d="M431.817,396.085L431.661,536.582L579.697,537.77L581.154,394.253L431.817,396.085Z"/>
                        </clipPath>
                        <g clip-path="url(#_clip5)">
                            <g id="Neck-Reflection" serif:id="Neck Reflection" transform="matrix(0.834619,0,0,1,83.8646,0)">
                                <path d="M431.817,396.085L431.661,536.582L579.697,537.77L581.154,394.253L431.817,396.085Z" style="fill:white;fill-opacity:0.15;"/>
                            </g>
                            <g id="Layer1">
                            </g>
                        </g>
                        <path id="Neck-Base2" serif:id="Neck Base" d="M431.817,396.085L431.661,536.582L579.697,537.77L581.154,394.253L431.817,396.085Z" style="fill:none;stroke:black;stroke-width:5.17px;stroke-linecap:butt;stroke-linejoin:miter;"/>
                    </g>
                </g>
                <g id="Shirt" transform="matrix(0.945664,0,0,1,28.3746,0)">
                    <g>
                        <path d="M507.42,532.722C553.792,531.703 576.74,507.538 585.012,465.446L604.418,479.57C656.026,499.88 704.886,520.705 749.661,545.187C760.017,556.026 771.836,588.132 776.66,621.673C780.892,651.094 780.535,684.127 783.795,712.01C787.522,743.891 796.851,769.417 797.195,773.843C777.989,791.677 732.311,795.338 675.099,795.056L674.238,710.554L673.86,851.588L340.98,851.588L340.602,710.554L339.741,795.056C282.529,795.338 236.851,791.677 217.646,773.843C217.989,769.417 227.318,743.891 231.046,712.01C234.306,684.127 233.949,651.094 238.18,621.673C243.004,588.132 256.149,555.428 266.505,544.588C311.28,520.106 355.814,499.88 407.422,479.57L426.828,465.446C435.1,507.538 461.048,531.703 507.42,532.722Z" style="fill:rgb(18,106,200);stroke:black;stroke-width:5.14px;"/>
                    </g>
                </g>
                <g id="Face1" serif:id="Face">
                    <g transform="matrix(1,0,0,1,8.22338,5.02399)">
                        <g id="Faces">
                            <path id="Face-2" serif:id="Face 2" d="M496.805,173.482C497.438,173.444 502.172,173.394 503.04,173.373C506.407,173.292 509.782,173.451 513.122,173.896C517.724,174.508 522.247,175.673 526.565,177.381C530.501,178.937 534.253,180.934 537.799,183.24C545.314,188.13 551.875,194.328 558.139,200.702C560.619,203.226 563.058,205.791 565.499,208.354C566.436,209.337 567.371,210.322 568.31,211.303C568.625,211.633 568.965,211.941 569.257,212.292C569.38,212.441 569.45,212.626 569.546,212.794C569.838,213.301 570.126,213.811 570.411,214.323C571.195,215.73 571.954,217.152 572.687,218.586C575.394,223.883 577.758,229.353 579.789,234.944C586.103,252.321 589.157,270.789 589.39,289.254C589.447,293.737 589.339,298.223 589.077,302.699C588.98,304.362 588.862,306.024 588.722,307.684C588.712,307.807 588.559,309.585 588.542,309.705C585.114,334.033 581.71,358.364 578.208,382.681C578.173,382.922 578.026,383.133 577.934,383.358C577.748,383.817 577.56,384.275 577.371,384.732C576.676,386.411 575.962,388.082 575.229,389.745C572.903,395.02 570.388,400.213 567.673,405.299C565.468,409.431 563.13,413.493 560.64,417.46C554.887,426.626 548.311,435.386 540.516,442.926C535.063,448.202 528.965,452.895 522.165,456.307C517.311,458.743 512.108,460.494 506.73,461.301C505.556,461.477 495.443,462.325 495.397,461.775C456.989,460.081 430.59,411.393 419.035,382.681L408.7,309.705C404.629,266.433 415.622,233.59 427.986,212.292C448.243,191.167 464.655,171.57 496.805,173.482Z" style="fill:rgb(120,44,21);"/>
                            <clipPath id="_clip6">
                                <path id="Face-21" serif:id="Face 2" d="M496.805,173.482C497.438,173.444 502.172,173.394 503.04,173.373C506.407,173.292 509.782,173.451 513.122,173.896C517.724,174.508 522.247,175.673 526.565,177.381C530.501,178.937 534.253,180.934 537.799,183.24C545.314,188.13 551.875,194.328 558.139,200.702C560.619,203.226 563.058,205.791 565.499,208.354C566.436,209.337 567.371,210.322 568.31,211.303C568.625,211.633 568.965,211.941 569.257,212.292C569.38,212.441 569.45,212.626 569.546,212.794C569.838,213.301 570.126,213.811 570.411,214.323C571.195,215.73 571.954,217.152 572.687,218.586C575.394,223.883 577.758,229.353 579.789,234.944C586.103,252.321 589.157,270.789 589.39,289.254C589.447,293.737 589.339,298.223 589.077,302.699C588.98,304.362 588.862,306.024 588.722,307.684C588.712,307.807 588.559,309.585 588.542,309.705C585.114,334.033 581.71,358.364 578.208,382.681C578.173,382.922 578.026,383.133 577.934,383.358C577.748,383.817 577.56,384.275 577.371,384.732C576.676,386.411 575.962,388.082 575.229,389.745C572.903,395.02 570.388,400.213 567.673,405.299C565.468,409.431 563.13,413.493 560.64,417.46C554.887,426.626 548.311,435.386 540.516,442.926C535.063,448.202 528.965,452.895 522.165,456.307C517.311,458.743 512.108,460.494 506.73,461.301C505.556,461.477 495.443,462.325 495.397,461.775C456.989,460.081 430.59,411.393 419.035,382.681L408.7,309.705C404.629,266.433 415.622,233.59 427.986,212.292C448.243,191.167 464.655,171.57 496.805,173.482Z"/>
                            </clipPath>
                            <g clip-path="url(#_clip6)">
                                <g transform="matrix(0.83077,0,0,1.09121,75.6571,-21.2937)">
                                    <path id="Face-22" serif:id="Face 2" d="M508.028,178.506C537.071,176.777 566.082,197.297 581.14,212.244C591.8,233.281 600.854,261.884 600.594,305.741L590.23,382.936C590.145,392.128 579.001,415.449 561.882,436.167C538.622,464.317 507.038,471.761 506.62,466.799C468.212,465.105 441.814,416.417 430.258,387.705L419.924,314.729C415.853,271.457 423.7,238.645 436.063,217.347C456.32,196.221 475.878,176.594 508.028,178.506Z" style="fill:white;fill-opacity:0.15;"/>
                                </g>
                                <g>
                                    <g id="Cheek-Shadow1" serif:id="Cheek Shadow">
                                        <g transform="matrix(1,0,0,1,-0.803312,16.0911)">
                                            <path d="M589.406,296.623C578.255,296.292 535.326,418.317 539.701,427.657C573.195,499.146 655.334,298.58 589.406,296.623Z" style="fill:rgb(120,44,21);"/>
                                        </g>
                                        <g transform="matrix(-1,0,0,1,997.884,16.0911)">
                                            <path d="M589.406,296.623C578.255,296.292 535.326,418.317 539.701,427.657C573.195,499.146 655.334,298.58 589.406,296.623Z" style="fill:rgb(120,44,21);"/>
                                        </g>
                                    </g>
                                    <g transform="matrix(1,0,0,1,-0.803312,16.0911)">
                                        <g id="Hair-2" serif:id="Hair 2">
                                            <path d="M501.103,190.003C470.308,191.558 448.991,197.806 437.058,207.547C429.345,225.115 426.042,243.111 425.268,261.353C423.356,273.82 418.54,287.617 410.424,295.103C404.684,262.721 408.999,226.104 428.021,192.638C447.633,172.496 467.182,160.06 495.27,156.67C498.216,153.723 557.272,167.169 572.864,191.023C591.885,224.49 593.906,262.721 588.167,295.103C580.051,287.617 575.793,273.82 573.88,261.353C573.106,243.111 573.803,225.115 566.091,207.547C558.275,193.706 503.567,187.648 501.103,190.003Z" style="fill:url(#_Linear7);"/>
                                        </g>
                                    </g>
                                </g>
                            </g>
                            <path id="Face-23" serif:id="Face 2" d="M496.805,173.482C497.438,173.444 502.172,173.394 503.04,173.373C506.407,173.292 509.782,173.451 513.122,173.896C517.724,174.508 522.247,175.673 526.565,177.381C530.501,178.937 534.253,180.934 537.799,183.24C545.314,188.13 551.875,194.328 558.139,200.702C560.619,203.226 563.058,205.791 565.499,208.354C566.436,209.337 567.371,210.322 568.31,211.303C568.625,211.633 568.965,211.941 569.257,212.292C569.38,212.441 569.45,212.626 569.546,212.794C569.838,213.301 570.126,213.811 570.411,214.323C571.195,215.73 571.954,217.152 572.687,218.586C575.394,223.883 577.758,229.353 579.789,234.944C586.103,252.321 589.157,270.789 589.39,289.254C589.447,293.737 589.339,298.223 589.077,302.699C588.98,304.362 588.862,306.024 588.722,307.684C588.712,307.807 588.559,309.585 588.542,309.705C585.114,334.033 581.71,358.364 578.208,382.681C578.173,382.922 578.026,383.133 577.934,383.358C577.748,383.817 577.56,384.275 577.371,384.732C576.676,386.411 575.962,388.082 575.229,389.745C572.903,395.02 570.388,400.213 567.673,405.299C565.468,409.431 563.13,413.493 560.64,417.46C554.887,426.626 548.311,435.386 540.516,442.926C535.063,448.202 528.965,452.895 522.165,456.307C517.311,458.743 512.108,460.494 506.73,461.301C505.556,461.477 495.443,462.325 495.397,461.775C456.989,460.081 430.59,411.393 419.035,382.681L408.7,309.705C404.629,266.433 415.622,233.59 427.986,212.292C448.243,191.167 464.655,171.57 496.805,173.482Z" style="fill:none;stroke:black;stroke-width:5px;stroke-linecap:butt;stroke-linejoin:miter;"/>
                        </g>
                    </g>
                    <g id="Hair">
                    </g>
                    <g transform="matrix(1,0,0,1,3.92409,-30.3131)">
                        <g id="Soul-Patch" serif:id="Soul Patch">
                            <path id="Soul-Patch-2" serif:id="Soul Patch 2" d="M495.125,448.983C501.254,451.308 509.557,451.098 515.686,448.764C518.988,454.707 490.808,454.655 495.125,448.983Z" style="fill-opacity:0.75;"/>
                        </g>
                    </g>
                    <g transform="matrix(1,0,0,1,7.42007,18.1151)">
                        <g id="Moustache">
                            <path id="Moustache-2" serif:id="Moustache 2" d="M467.627,371.815C476.423,365.158 485.133,357.968 494.248,357.482C499.906,357.181 507.89,356.234 513.531,357.299C521.066,358.722 528.939,365.439 537.871,372.598" style="fill:none;stroke:black;stroke-opacity:0.75;stroke-width:8.33px;"/>
                        </g>
                    </g>
                    <g id="Forehead-Reflection1" serif:id="Forehead Reflection" transform="matrix(1,0,0,1,0,-15)">
                        <g>
                            <path d="M620.332,205.938C620.331,221.545 567.614,276.921 570.488,291.85L561.592,300.968L527.778,302.555C524.116,303.951 519.526,308.812 513.965,317.305C508.883,315.527 503.959,315.479 499.222,317.469C494.89,310.568 490.575,305.023 486.304,302.937C472.33,298.022 459.405,298.428 447.306,303.032L441.611,294.601C445.69,277.612 372.954,220.07 373.462,202.572L497.839,173.46L620.332,205.938Z" style="fill:url(#_Linear8);"/>
                        </g>
                    </g>
                    <g id="Nose1" serif:id="Nose" transform="matrix(1,0,0,1,0,-1)">
                        <g id="Nose-Side1" serif:id="Nose Side">
                            <path d="M513.718,304.01C513.969,308.591 512.947,323.471 512.604,327.539C511.917,335.69 519.82,347.924 526.105,346.041L513.718,304.01Z" style="fill:rgb(120,44,21);"/>
                        </g>
                        <g id="Nose-Dots" serif:id="Nose Dots" transform="matrix(1,0,0,1,4,-2)">
                            <g opacity="0.27">
                                <g transform="matrix(0.780458,0.625208,0.625208,-0.780458,-118.421,318.649)">
                                    <g id="Dots-2" serif:id="Dots 2">
                                        <path d="M510.578,357.765L512.77,359.515" style="fill:none;stroke:white;stroke-width:2.08px;stroke-miterlimit:4;"/>
                                    </g>
                                </g>
                            </g>
                        </g>
                        <g transform="matrix(1,0,0,1,3.19559,-2.26554)">
                            <g id="Nostrils">
                                <g id="Nose-2" serif:id="Nose 2">
                                    <path d="M488.998,351.244C483.435,357.689 480.683,365.086 483.047,366.961C484.515,368.125 488.122,364.567 492.677,363.601L501.916,367.79L508.819,367.634L519.605,363.94C523.807,364.518 528.442,368.074 529.827,366.731C531.399,364.178 528.746,355.425 523.624,350.988" style="fill:none;stroke:black;stroke-width:5px;stroke-miterlimit:4;"/>
                                </g>
                            </g>
                        </g>
                    </g>
                    <g id="Wrinkles1" serif:id="Wrinkles" transform="matrix(1,0,0,1,0,-15)">
                        <g opacity="0.43">
                            <g id="Upper-Wrinkles1" serif:id="Upper Wrinkles">
                                <g>
                                    <g id="Under-Eye-Wrinkles-11" serif:id="Under Eye Wrinkles 1">
                                        <g transform="matrix(1,0,0,1,1.67944,2.43465)">
                                            <path d="M515.193,318.505C519.154,322.682 524.472,326.002 529.833,328.079" style="fill:none;stroke:rgb(120,44,21);stroke-width:4.17px;stroke-miterlimit:4;"/>
                                        </g>
                                        <g transform="matrix(-1,0,0,1,1010.71,2.43465)">
                                            <path d="M515.193,318.505C519.154,322.682 524.472,326.002 529.833,328.079" style="fill:none;stroke:rgb(120,44,21);stroke-width:4.17px;stroke-miterlimit:4;"/>
                                        </g>
                                    </g>
                                </g>
                            </g>
                            <g transform="matrix(1,0,0,-1,4,880.036)">
                                <g id="Chin-Wrinkle" serif:id="Chin Wrinkle">
                                    <path d="M487.839,427.197C499.254,431.46 510.668,431.847 522.083,426.574" style="fill:none;stroke:rgb(120,44,21);stroke-width:4.17px;stroke-miterlimit:4;"/>
                                </g>
                            </g>
                        </g>
                    </g>
                    <g id="Eyebrows" transform="matrix(1,0,0,1,0,-15)">
                        <g id="Eyebrows-2" serif:id="Eyebrows 2">
                            <g id="Left-Eyebrow" serif:id="Left Eyebrow" transform="matrix(-1,0,0,1,1013.11,0)">
                                <path d="M523.738,305.02C533.861,301.601 544.426,301.918 554.496,303.211C565.508,305.741 572.515,309.307 579.377,314.105C572.568,305.377 565.721,296.095 557.067,294.731C550.409,293.86 543.185,293.202 536.085,294.13C530.075,295.681 526.025,301.796 523.738,305.02Z" style="stroke:black;stroke-width:0.42px;stroke-miterlimit:4;"/>
                            </g>
                            <path id="Left-Eyebrow1" serif:id="Left Eyebrow" d="M523.738,305.02C533.861,301.601 544.426,301.918 554.496,303.211C565.508,305.741 572.515,309.307 579.377,314.105C572.568,305.377 565.721,296.095 557.067,294.731C550.409,293.86 543.185,293.202 536.085,294.13C530.075,295.681 526.025,301.796 523.738,305.02Z" style="stroke:black;stroke-width:0.42px;stroke-miterlimit:4;"/>
                        </g>
                    </g>
                    <g transform="matrix(1,0,0,1,7.42007,21.1151)">
                        <g id="Mouth1" serif:id="Mouth">
                            <g id="Mouth-2" serif:id="Mouth 2">
                                <path d="M468.686,378.438C490.387,359.216 514.914,358.543 536.312,378.061C514.445,402.173 489.935,401.583 468.686,378.438Z" style="fill:rgb(120,44,21);"/>
                                <g transform="matrix(1,0,0,1,0.157349,0.950168)">
                                    <path d="M471.288,377.31C490.7,380.375 511.236,380.66 533.246,377.5" style="fill:none;stroke:black;stroke-width:5.83px;"/>
                                </g>
                            </g>
                        </g>
                    </g>
                    <g id="Eyes1" serif:id="Eyes" transform="matrix(1,0,0,1,0,-15)">
                        <g transform="matrix(0.903923,0,0,1.0698,37.1147,-34.2008)">
                            <ellipse cx="475.203" cy="330.502" rx="7.785" ry="6.871"/>
                            <path d="M475.203,323.631C479.499,323.631 482.988,326.709 482.988,330.502C482.988,334.294 479.499,337.373 475.203,337.373C470.906,337.373 467.418,334.294 467.418,330.502C467.418,326.709 470.906,323.631 475.203,323.631ZM475.203,326.357C477.759,326.357 479.761,328.246 479.761,330.502C479.761,332.757 477.759,334.646 475.203,334.646C472.647,334.646 470.645,332.757 470.645,330.502C470.645,328.246 472.647,326.357 475.203,326.357Z"/>
                        </g>
                        <g transform="matrix(-0.933812,0,0,1.04746,989.761,-26.6733)">
                            <ellipse cx="475.203" cy="330.502" rx="7.785" ry="6.871"/>
                            <path d="M475.203,323.631C479.499,323.631 482.988,326.709 482.988,330.502C482.988,334.294 479.499,337.373 475.203,337.373C470.906,337.373 467.418,334.294 467.418,330.502C467.418,326.709 470.906,323.631 475.203,323.631ZM475.203,326.415C472.639,326.415 470.542,328.238 470.542,330.502C470.542,332.765 472.639,334.588 475.203,334.588C477.767,334.588 479.864,332.765 479.864,330.502C479.864,328.238 477.767,326.415 475.203,326.415Z"/>
                        </g>
                        <g transform="matrix(1,0,0,1,0.0564878,0.62005)">
                            <path d="M445.802,321.466C460.276,308.993 476.226,308.662 486.956,321.602" style="fill:none;stroke:black;stroke-width:6.25px;stroke-linecap:butt;stroke-linejoin:miter;"/>
                        </g>
                        <g transform="matrix(-1,0,0,1,1012.81,0.62005)">
                            <path d="M445.802,321.466C460.276,308.993 476.226,308.662 486.956,321.602" style="fill:none;stroke:black;stroke-width:6.25px;stroke-linecap:butt;stroke-linejoin:miter;"/>
                        </g>
                    </g>
                </g>
            </g>
        </g>
    </g>
    <defs>
        <linearGradient id="_Linear2" x1="0" y1="0" x2="1" y2="0" gradientUnits="userSpaceOnUse" gradientTransform="matrix(-0.468924,117.149,-117.149,-0.468924,511.82,216.745)"><stop offset="0" style="stop-color:white;stop-opacity:0"/><stop offset="0.51" style="stop-color:white;stop-opacity:0.08"/><stop offset="1" style="stop-color:white;stop-opacity:0.33"/></linearGradient>
        <linearGradient id="_Linear7" x1="0" y1="0" x2="1" y2="0" gradientUnits="userSpaceOnUse" gradientTransform="matrix(1.5025,151.059,-151.059,1.5025,501.658,150.065)"><stop offset="0" style="stop-color:black;stop-opacity:1"/><stop offset="0.65" style="stop-color:black;stop-opacity:0.86"/><stop offset="0.84" style="stop-color:black;stop-opacity:0.49"/><stop offset="1" style="stop-color:black;stop-opacity:0.06"/></linearGradient>
        <linearGradient id="_Linear8" x1="0" y1="0" x2="1" y2="0" gradientUnits="userSpaceOnUse" gradientTransform="matrix(-0.468924,117.149,-117.149,-0.468924,511.82,216.745)"><stop offset="0" style="stop-color:white;stop-opacity:0"/><stop offset="0.65" style="stop-color:white;stop-opacity:0.05"/><stop offset="0.84" style="stop-color:white;stop-opacity:0.18"/><stop offset="1" style="stop-color:white;stop-opacity:0.33"/></linearGradient>
    </defs>
</svg>
