<?xml version="1.0" encoding="UTF-8" standalone="no"?>
<!DOCTYPE svg PUBLIC "-//W3C//DTD SVG 1.1//EN" "http://www.w3.org/Graphics/SVG/1.1/DTD/svg11.dtd">
<svg width="100%" height="100%" viewBox="0 0 1000 1000" version="1.1" xmlns="http://www.w3.org/2000/svg" xmlns:xlink="http://www.w3.org/1999/xlink" xml:space="preserve" xmlns:serif="http://www.serif.com/" style="fill-rule:evenodd;clip-rule:evenodd;stroke-linecap:round;stroke-linejoin:round;">
    <g transform="matrix(1,0,0,1,-8.22338,-5.02399)">
        <g id="Ears" transform="matrix(1,0,0,1,-3,0)">
            <g id="Ears-2" serif:id="Ears 2">
                <g id="Left-Ear" serif:id="Left Ear" transform="matrix(-1,0,0,1,1019.32,-22.1421)">
                    <path d="M588.585,341.542C593.233,337.498 599.257,333.729 608.539,330.609C616.121,329.517 617.573,344.324 615.997,363.551C615.603,368.359 615.458,374.987 614.66,379.91C614.747,386.852 604.829,394.314 595.859,396.946C589.414,398.836 583.448,398.145 582.085,393.384C579.128,383.054 588.585,341.542 588.585,341.542Z" style="fill:rgb(120,44,21);stroke:black;stroke-width:5px;"/>
                </g>
                <g id="Right-Ear" serif:id="Right Ear" transform="matrix(1,0,0,1,0.240088,-22.1421)">
                    <path d="M588.585,341.542C593.233,337.498 599.257,333.729 608.539,330.609C616.121,329.517 617.573,344.324 615.997,363.551C615.603,368.359 615.458,374.987 614.66,379.91C614.747,386.852 604.829,394.314 595.859,396.946C589.414,398.836 583.448,398.145 582.085,393.384C579.128,383.054 588.585,341.542 588.585,341.542Z" style="fill:rgb(120,44,21);stroke:black;stroke-width:5px;"/>
                </g>
            </g>
        </g>
        <g id="Arms" transform="matrix(0.86578,0,0,0.91816,106.008,63.0382)">
            <g>
                <g id="Right-Arm" serif:id="Right Arm" transform="matrix(1,0,0,1,-9.24022,0)">
                    <path d="M789.806,770.263C789.806,770.263 775.006,842.891 774.552,851.414C774.099,859.937 653.139,852.788 653.139,852.788L652.871,829.938L657.768,786.927L789.806,770.263Z" style="fill:rgb(120,44,21);"/>
                    <clipPath id="_clip1">
                        <path d="M789.806,770.263C789.806,770.263 775.006,842.891 774.552,851.414C774.099,859.937 653.139,852.788 653.139,852.788L652.871,829.938L657.768,786.927L789.806,770.263Z"/>
                    </clipPath>
                    <g clip-path="url(#_clip1)">
                        <g id="Right-Arm-Reflection" serif:id="Right Arm Reflection" transform="matrix(1.15503,0,0,1.08913,82.9783,509.308)">
                            <path d="M583.087,332.03C584.144,347.777 475.557,347.777 476.614,332.03C477.067,325.268 477.803,320.17 479.533,315.911C481.48,311.117 484.548,307.194 487.222,299.498C493.313,281.961 489.831,256.687 490.44,237.402L554.547,228.193L596.119,232.699C596.728,251.984 582.634,325.268 583.087,332.03Z" style="fill:white;fill-opacity:0.15;"/>
                        </g>
                    </g>
                    <path d="M789.806,770.263C789.806,770.263 775.006,842.891 774.552,851.414C774.099,859.937 653.139,852.788 653.139,852.788L652.871,829.938L657.768,786.927L789.806,770.263Z" style="fill:none;stroke:black;stroke-width:3.27px;"/>
                </g>
                <g id="Left-Arm" serif:id="Left Arm" transform="matrix(-1,0,0,1,937.93,0)">
                    <path d="M789.806,770.263C789.806,770.263 775.006,842.891 774.552,851.414C774.099,859.937 653.139,852.788 653.139,852.788L652.871,829.938L657.768,786.927L789.806,770.263Z" style="fill:rgb(120,44,21);"/>
                    <clipPath id="_clip2">
                        <path d="M789.806,770.263C789.806,770.263 775.006,842.891 774.552,851.414C774.099,859.937 653.139,852.788 653.139,852.788L652.871,829.938L657.768,786.927L789.806,770.263Z"/>
                    </clipPath>
                    <g clip-path="url(#_clip2)">
                        <g id="Left-Arm-Reflection" serif:id="Left Arm Reflection" transform="matrix(1.15503,0,0,1.08913,82.9783,509.308)">
                            <path d="M583.087,332.03C584.144,347.777 475.557,347.777 476.614,332.03C477.067,325.268 477.803,320.17 479.533,315.911C481.48,311.117 484.548,307.194 487.222,299.498C493.313,281.961 489.831,256.687 490.44,237.402L554.547,228.193L596.119,232.699C596.728,251.984 582.634,325.268 583.087,332.03Z" style="fill:white;fill-opacity:0.15;"/>
                        </g>
                    </g>
                    <path d="M789.806,770.263C789.806,770.263 775.006,842.891 774.552,851.414C774.099,859.937 653.139,852.788 653.139,852.788L652.871,829.938L657.768,786.927L789.806,770.263Z" style="fill:none;stroke:black;stroke-width:3.27px;"/>
                </g>
            </g>
        </g>
        <g id="Neck" transform="matrix(0.931256,0,0,1,35.5428,0)">
            <g>
                <path id="Neck-Base" serif:id="Neck Base" d="M431.817,396.085L431.661,536.582L579.697,537.77L581.154,394.253L431.817,396.085Z" style="fill:rgb(120,44,21);"/>
                <clipPath id="_clip3">
                    <path id="Neck-Base1" serif:id="Neck Base" d="M431.817,396.085L431.661,536.582L579.697,537.77L581.154,394.253L431.817,396.085Z"/>
                </clipPath>
                <g clip-path="url(#_clip3)">
                    <g id="Neck-Reflection" serif:id="Neck Reflection" transform="matrix(0.834619,0,0,1,83.8646,0)">
                        <path d="M431.817,396.085L431.661,536.582L579.697,537.77L581.154,394.253L431.817,396.085Z" style="fill:white;fill-opacity:0.15;"/>
                    </g>
                    <g id="Layer1">
                    </g>
                </g>
                <path id="Neck-Base2" serif:id="Neck Base" d="M431.817,396.085L431.661,536.582L579.697,537.77L581.154,394.253L431.817,396.085Z" style="fill:none;stroke:black;stroke-width:5.17px;stroke-linecap:butt;stroke-linejoin:miter;stroke-miterlimit:1.5;"/>
            </g>
        </g>
        <g id="Shirt" transform="matrix(0.945664,0,0,1,28.3746,0)">
            <g>
                <path d="M507.42,532.722C553.792,531.703 576.74,507.538 585.012,465.446L604.418,479.57C656.026,499.88 704.886,520.705 749.661,545.187C760.017,556.026 771.836,588.132 776.66,621.673C780.892,651.094 780.535,684.127 783.795,712.01C787.522,743.891 796.851,769.417 797.195,773.843C777.989,791.677 732.311,795.338 675.099,795.056L674.238,710.554L673.86,851.588L340.98,851.588L340.602,710.554L339.741,795.056C282.529,795.338 236.851,791.677 217.646,773.843C217.989,769.417 227.318,743.891 231.046,712.01C234.306,684.127 233.949,651.094 238.18,621.673C243.004,588.132 256.149,555.428 266.505,544.588C311.28,520.106 355.814,499.88 407.422,479.57L426.828,465.446C435.1,507.538 461.048,531.703 507.42,532.722Z" style="fill:rgb(18,106,200);stroke:black;stroke-width:5.14px;stroke-miterlimit:1.5;"/>
            </g>
        </g>
        <g id="Face">
            <g transform="matrix(1,0,0,1,8.22338,5.02399)">
                <g id="Faces">
                    <path id="Face-2" serif:id="Face 2" d="M496.805,173.482C497.438,173.444 502.172,173.394 503.04,173.373C506.407,173.292 509.782,173.451 513.122,173.896C517.724,174.508 522.247,175.673 526.565,177.381C530.501,178.937 534.253,180.934 537.799,183.24C545.314,188.13 551.875,194.328 558.139,200.702C560.619,203.226 563.058,205.791 565.499,208.354C566.436,209.337 567.371,210.322 568.31,211.303C568.625,211.633 568.965,211.941 569.257,212.292C569.38,212.441 569.45,212.626 569.546,212.794C569.838,213.301 570.126,213.811 570.411,214.323C571.195,215.73 571.954,217.152 572.687,218.586C575.394,223.883 577.758,229.353 579.789,234.944C586.103,252.321 589.157,270.789 589.39,289.254C589.447,293.737 589.339,298.223 589.077,302.699C588.98,304.362 588.862,306.024 588.722,307.684C588.712,307.807 588.559,309.585 588.542,309.705C585.114,334.033 581.71,358.364 578.208,382.681C578.173,382.922 578.026,383.133 577.934,383.358C577.748,383.817 577.56,384.275 577.371,384.732C576.676,386.411 575.962,388.082 575.229,389.745C572.903,395.02 570.388,400.213 567.673,405.299C565.468,409.431 563.13,413.493 560.64,417.46C554.887,426.626 548.311,435.386 540.516,442.926C535.063,448.202 528.965,452.895 522.165,456.307C517.311,458.743 512.108,460.494 506.73,461.301C505.556,461.477 495.443,462.325 495.397,461.775C456.989,460.081 430.59,411.393 419.035,382.681L408.7,309.705C404.629,266.433 415.622,233.59 427.986,212.292C448.243,191.167 464.655,171.57 496.805,173.482Z" style="fill:rgb(120,44,21);"/>
                    <clipPath id="_clip4">
                        <path id="Face-21" serif:id="Face 2" d="M496.805,173.482C497.438,173.444 502.172,173.394 503.04,173.373C506.407,173.292 509.782,173.451 513.122,173.896C517.724,174.508 522.247,175.673 526.565,177.381C530.501,178.937 534.253,180.934 537.799,183.24C545.314,188.13 551.875,194.328 558.139,200.702C560.619,203.226 563.058,205.791 565.499,208.354C566.436,209.337 567.371,210.322 568.31,211.303C568.625,211.633 568.965,211.941 569.257,212.292C569.38,212.441 569.45,212.626 569.546,212.794C569.838,213.301 570.126,213.811 570.411,214.323C571.195,215.73 571.954,217.152 572.687,218.586C575.394,223.883 577.758,229.353 579.789,234.944C586.103,252.321 589.157,270.789 589.39,289.254C589.447,293.737 589.339,298.223 589.077,302.699C588.98,304.362 588.862,306.024 588.722,307.684C588.712,307.807 588.559,309.585 588.542,309.705C585.114,334.033 581.71,358.364 578.208,382.681C578.173,382.922 578.026,383.133 577.934,383.358C577.748,383.817 577.56,384.275 577.371,384.732C576.676,386.411 575.962,388.082 575.229,389.745C572.903,395.02 570.388,400.213 567.673,405.299C565.468,409.431 563.13,413.493 560.64,417.46C554.887,426.626 548.311,435.386 540.516,442.926C535.063,448.202 528.965,452.895 522.165,456.307C517.311,458.743 512.108,460.494 506.73,461.301C505.556,461.477 495.443,462.325 495.397,461.775C456.989,460.081 430.59,411.393 419.035,382.681L408.7,309.705C404.629,266.433 415.622,233.59 427.986,212.292C448.243,191.167 464.655,171.57 496.805,173.482Z"/>
                    </clipPath>
                    <g clip-path="url(#_clip4)" style="mix-blend-mode: overlay;">
                        <g id="Face-22" serif:id="Face 2" transform="matrix(0.83077,0,0,1.09121,75.6571,-21.2937)">
                            <path d="M508.028,178.506C537.071,176.777 566.082,197.297 581.14,212.244C591.8,233.281 600.854,261.884 600.594,305.741L590.23,382.936C590.145,392.128 579.001,415.449 561.882,436.167C538.622,464.317 507.038,471.761 506.62,466.799C468.212,465.105 441.814,416.417 430.258,387.705L419.924,314.729C415.853,271.457 423.7,238.645 436.063,217.347C456.32,196.221 475.878,176.594 508.028,178.506Z" style="fill:white;fill-opacity:0.15;"/>
                        </g>
                    </g>
                    <g clip-path="url(#_clip4)">
                        <g id="Cheek-Shadow" serif:id="Cheek Shadow">
                            <g transform="matrix(1,0,0,1,-0.803312,16.0911)">
                                <path d="M589.406,296.623C578.255,296.292 535.326,418.317 539.701,427.657C573.195,499.146 655.334,298.58 589.406,296.623Z" style="fill:rgb(120,44,21);"/>
                            </g>
                            <g transform="matrix(-1,0,0,1,997.884,16.0911)">
                                <path d="M589.406,296.623C578.255,296.292 535.326,418.317 539.701,427.657C573.195,499.146 655.334,298.58 589.406,296.623Z" style="fill:rgb(120,44,21);"/>
                            </g>
                        </g>
                        <g transform="matrix(1,0,0,1,-0.803312,16.0911)">
                            <g id="Hair-2" serif:id="Hair 2">
                                <path d="M501.103,190.003C470.308,191.558 448.991,197.806 437.058,207.547C429.345,225.115 426.042,243.111 425.268,261.353C423.356,273.82 418.54,287.617 410.424,295.103C404.684,262.721 408.999,226.104 428.021,192.638C447.633,172.496 467.182,160.06 495.27,156.67C498.216,153.723 557.272,167.169 572.864,191.023C591.885,224.49 593.906,262.721 588.167,295.103C580.051,287.617 575.793,273.82 573.88,261.353C573.106,243.111 573.803,225.115 566.091,207.547C558.275,193.706 503.567,187.648 501.103,190.003Z" style="fill:url(#_Linear5);"/>
                            </g>
                        </g>
                    </g>
                    <path id="Face-23" serif:id="Face 2" d="M496.805,173.482C497.438,173.444 502.172,173.394 503.04,173.373C506.407,173.292 509.782,173.451 513.122,173.896C517.724,174.508 522.247,175.673 526.565,177.381C530.501,178.937 534.253,180.934 537.799,183.24C545.314,188.13 551.875,194.328 558.139,200.702C560.619,203.226 563.058,205.791 565.499,208.354C566.436,209.337 567.371,210.322 568.31,211.303C568.625,211.633 568.965,211.941 569.257,212.292C569.38,212.441 569.45,212.626 569.546,212.794C569.838,213.301 570.126,213.811 570.411,214.323C571.195,215.73 571.954,217.152 572.687,218.586C575.394,223.883 577.758,229.353 579.789,234.944C586.103,252.321 589.157,270.789 589.39,289.254C589.447,293.737 589.339,298.223 589.077,302.699C588.98,304.362 588.862,306.024 588.722,307.684C588.712,307.807 588.559,309.585 588.542,309.705C585.114,334.033 581.71,358.364 578.208,382.681C578.173,382.922 578.026,383.133 577.934,383.358C577.748,383.817 577.56,384.275 577.371,384.732C576.676,386.411 575.962,388.082 575.229,389.745C572.903,395.02 570.388,400.213 567.673,405.299C565.468,409.431 563.13,413.493 560.64,417.46C554.887,426.626 548.311,435.386 540.516,442.926C535.063,448.202 528.965,452.895 522.165,456.307C517.311,458.743 512.108,460.494 506.73,461.301C505.556,461.477 495.443,462.325 495.397,461.775C456.989,460.081 430.59,411.393 419.035,382.681L408.7,309.705C404.629,266.433 415.622,233.59 427.986,212.292C448.243,191.167 464.655,171.57 496.805,173.482Z" style="fill:none;stroke:black;stroke-width:5px;stroke-linecap:butt;stroke-linejoin:miter;stroke-miterlimit:1.5;"/>
                </g>
            </g>
            <g id="Hair">
            </g>
            <g transform="matrix(1,0,0,1,3.92409,-30.3131)">
                <g id="Soul-Patch" serif:id="Soul Patch">
                    <path id="Soul-Patch-2" serif:id="Soul Patch 2" d="M495.125,448.983C501.254,451.308 509.557,451.098 515.686,448.764C518.988,454.707 490.808,454.655 495.125,448.983Z" style="fill-opacity:0.75;"/>
                </g>
            </g>
            <g transform="matrix(1,0,0,1,7.42007,18.1151)">
                <g id="Moustache">
                    <path id="Moustache-2" serif:id="Moustache 2" d="M467.627,371.815C476.423,365.158 485.133,357.968 494.248,357.482C499.906,357.181 507.89,356.234 513.531,357.299C521.066,358.722 528.939,365.439 537.871,372.598" style="fill:none;stroke:black;stroke-opacity:0.75;stroke-width:8.33px;stroke-miterlimit:1.5;"/>
                </g>
            </g>
            <g id="Forehead-Reflection" serif:id="Forehead Reflection" transform="matrix(1,0,0,1,0,-15)">
                <g>
                    <path d="M620.332,205.938C620.331,221.545 567.614,276.921 570.488,291.85L561.592,300.968L527.778,302.555C524.116,303.951 519.526,308.812 513.965,317.305C508.883,315.527 503.959,315.479 499.222,317.469C494.89,310.568 490.575,305.023 486.304,302.937C472.33,298.022 459.405,298.428 447.306,303.032L441.611,294.601C445.69,277.612 372.954,220.07 373.462,202.572L497.839,173.46L620.332,205.938Z" style="fill:url(#_Linear6);"/>
                </g>
            </g>
            <g id="Nose" transform="matrix(1,0,0,1,0,-1)">
                <g id="Nose-Side" serif:id="Nose Side">
                    <path d="M513.718,304.01C513.969,308.591 512.947,323.471 512.604,327.539C511.917,335.69 519.82,347.924 526.105,346.041L513.718,304.01Z" style="fill:rgb(120,44,21);"/>
                </g>
                <g id="Nose-Dots" serif:id="Nose Dots" transform="matrix(1,0,0,1,4,-2)">
                    <g opacity="0.27">
                        <g transform="matrix(0.780458,0.625208,0.625208,-0.780458,-118.421,318.649)">
                            <g id="Dots-2" serif:id="Dots 2">
                                <path d="M510.578,357.765L512.77,359.515" style="fill:none;stroke:white;stroke-width:2.08px;"/>
                            </g>
                        </g>
                    </g>
                </g>
                <g transform="matrix(1,0,0,1,3.19559,-2.26554)">
                    <g id="Nostrils">
                        <g id="Nose-2" serif:id="Nose 2">
                            <path d="M488.998,351.244C483.435,357.689 480.683,365.086 483.047,366.961C484.515,368.125 488.122,364.567 492.677,363.601L501.916,367.79L508.819,367.634L519.605,363.94C523.807,364.518 528.442,368.074 529.827,366.731C531.399,364.178 528.746,355.425 523.624,350.988" style="fill:none;stroke:black;stroke-width:5px;"/>
                        </g>
                    </g>
                </g>
            </g>
            <g id="Wrinkles" transform="matrix(1,0,0,1,0,-15)">
                <g opacity="0.43">
                    <g id="Upper-Wrinkles" serif:id="Upper Wrinkles">
                        <g>
                            <g id="Under-Eye-Wrinkles-1" serif:id="Under Eye Wrinkles 1">
                                <g transform="matrix(1,0,0,1,1.67944,2.43465)">
                                    <path d="M515.193,318.505C519.154,322.682 524.472,326.002 529.833,328.079" style="fill:none;stroke:rgb(120,44,21);stroke-width:4.17px;"/>
                                </g>
                                <g transform="matrix(-1,0,0,1,1010.71,2.43465)">
                                    <path d="M515.193,318.505C519.154,322.682 524.472,326.002 529.833,328.079" style="fill:none;stroke:rgb(120,44,21);stroke-width:4.17px;"/>
                                </g>
                            </g>
                        </g>
                    </g>
                    <g transform="matrix(1,0,0,-1,4,880.036)">
                        <g id="Chin-Wrinkle" serif:id="Chin Wrinkle">
                            <path d="M487.839,427.197C499.254,431.46 510.668,431.847 522.083,426.574" style="fill:none;stroke:rgb(120,44,21);stroke-width:4.17px;"/>
                        </g>
                    </g>
                </g>
            </g>
            <g id="Eyebrows" transform="matrix(1,0,0,1,0,-15)">
                <g id="Eyebrows-2" serif:id="Eyebrows 2">
                    <g id="Left-Eyebrow" serif:id="Left Eyebrow" transform="matrix(-1,0,0,1,1013.11,0)">
                        <path d="M523.738,305.02C533.861,301.601 544.426,301.918 554.496,303.211C565.508,305.741 572.515,309.307 579.377,314.105C572.568,305.377 565.721,296.095 557.067,294.731C550.409,293.86 543.185,293.202 536.085,294.13C530.075,295.681 526.025,301.796 523.738,305.02Z" style="stroke:black;stroke-width:0.42px;"/>
                    </g>
                    <path id="Left-Eyebrow1" serif:id="Left Eyebrow" d="M523.738,305.02C533.861,301.601 544.426,301.918 554.496,303.211C565.508,305.741 572.515,309.307 579.377,314.105C572.568,305.377 565.721,296.095 557.067,294.731C550.409,293.86 543.185,293.202 536.085,294.13C530.075,295.681 526.025,301.796 523.738,305.02Z" style="stroke:black;stroke-width:0.42px;"/>
                </g>
            </g>
            <g transform="matrix(1,0,0,1,7.42007,21.1151)">
                <g id="Mouth">
                    <g id="Mouth-2" serif:id="Mouth 2">
                        <path d="M468.686,378.438C490.387,359.216 514.914,358.543 536.312,378.061C514.445,402.173 489.935,401.583 468.686,378.438Z" style="fill:rgb(120,44,21);"/>
                        <g transform="matrix(1,0,0,1,0.157349,0.950168)">
                            <path d="M471.288,377.31C490.7,380.375 511.236,380.66 533.246,377.5" style="fill:none;stroke:black;stroke-width:5.83px;stroke-miterlimit:1.5;"/>
                        </g>
                    </g>
                </g>
            </g>
            <g id="Eyes" transform="matrix(1,0,0,1,0,-15)">
                <g transform="matrix(0.903923,0,0,1.0698,37.1147,-34.2008)">
                    <ellipse cx="475.203" cy="330.502" rx="7.785" ry="6.871"/>
                    <path d="M475.203,323.631C479.499,323.631 482.988,326.709 482.988,330.502C482.988,334.294 479.499,337.373 475.203,337.373C470.906,337.373 467.418,334.294 467.418,330.502C467.418,326.709 470.906,323.631 475.203,323.631ZM475.203,326.357C477.759,326.357 479.761,328.246 479.761,330.502C479.761,332.757 477.759,334.646 475.203,334.646C472.647,334.646 470.645,332.757 470.645,330.502C470.645,328.246 472.647,326.357 475.203,326.357Z"/>
                </g>
                <g transform="matrix(-0.933812,0,0,1.04746,989.761,-26.6733)">
                    <ellipse cx="475.203" cy="330.502" rx="7.785" ry="6.871"/>
                    <path d="M475.203,323.631C479.499,323.631 482.988,326.709 482.988,330.502C482.988,334.294 479.499,337.373 475.203,337.373C470.906,337.373 467.418,334.294 467.418,330.502C467.418,326.709 470.906,323.631 475.203,323.631ZM475.203,326.415C472.639,326.415 470.542,328.238 470.542,330.502C470.542,332.765 472.639,334.588 475.203,334.588C477.767,334.588 479.864,332.765 479.864,330.502C479.864,328.238 477.767,326.415 475.203,326.415Z"/>
                </g>
                <g transform="matrix(1,0,0,1,0.0564878,0.62005)">
                    <path d="M445.802,321.466C460.276,308.993 476.226,308.662 486.956,321.602" style="fill:none;stroke:black;stroke-width:6.25px;stroke-linecap:butt;stroke-linejoin:miter;stroke-miterlimit:1.5;"/>
                </g>
                <g transform="matrix(-1,0,0,1,1012.81,0.62005)">
                    <path d="M445.802,321.466C460.276,308.993 476.226,308.662 486.956,321.602" style="fill:none;stroke:black;stroke-width:6.25px;stroke-linecap:butt;stroke-linejoin:miter;stroke-miterlimit:1.5;"/>
                </g>
            </g>
        </g>
    </g>
    <defs>
        <linearGradient id="_Linear5" x1="0" y1="0" x2="1" y2="0" gradientUnits="userSpaceOnUse" gradientTransform="matrix(1.5025,151.059,-151.059,1.5025,501.658,150.065)"><stop offset="0" style="stop-color:black;stop-opacity:1"/><stop offset="0.65" style="stop-color:black;stop-opacity:0.86"/><stop offset="0.84" style="stop-color:black;stop-opacity:0.49"/><stop offset="1" style="stop-color:black;stop-opacity:0.06"/></linearGradient>
        <linearGradient id="_Linear6" x1="0" y1="0" x2="1" y2="0" gradientUnits="userSpaceOnUse" gradientTransform="matrix(-0.468924,117.149,-117.149,-0.468924,511.82,216.745)"><stop offset="0" style="stop-color:white;stop-opacity:0"/><stop offset="0.65" style="stop-color:white;stop-opacity:0.05"/><stop offset="0.84" style="stop-color:white;stop-opacity:0.18"/><stop offset="1" style="stop-color:white;stop-opacity:0.33"/></linearGradient>
    </defs>
</svg>
