<?xml version="1.0" encoding="UTF-8" standalone="no"?>
<!DOCTYPE svg PUBLIC "-//W3C//DTD SVG 1.1//EN" "http://www.w3.org/Graphics/SVG/1.1/DTD/svg11.dtd">
<svg width="100%" height="100%" viewBox="0 0 1000 1000" version="1.1" xmlns="http://www.w3.org/2000/svg" xmlns:xlink="http://www.w3.org/1999/xlink" xml:space="preserve" xmlns:serif="http://www.serif.com/" style="fill-rule:evenodd;clip-rule:evenodd;stroke-linecap:round;stroke-linejoin:round;">
    <g transform="matrix(1,0,0,1,-7.42007,-21.1151)">
        <g id="Ears">
            <g id="Left-Ear" serif:id="Left Ear" transform="matrix(-1,0,0,1,1012.33,0)">
                <path d="M583.147,337.92L610.98,338.56C617.659,347.935 615.742,361.986 607.735,379.35C606.938,381.062 601.873,388.353 593.86,392.132C588.063,394.865 579.22,395.978 576.528,390.774C571.591,381.23 583.147,337.92 583.147,337.92Z" style="fill:rgb(201,114,76);stroke:black;stroke-width:5px;"/>
            </g>
            <path id="Right-Ear" serif:id="Right Ear" d="M583.147,337.92L610.98,338.56C617.659,347.935 615.742,361.986 607.735,379.35C606.938,381.062 601.873,388.353 593.86,392.132C588.063,394.865 579.22,395.978 576.528,390.774C571.591,381.23 583.147,337.92 583.147,337.92Z" style="fill:rgb(201,114,76);stroke:black;stroke-width:5px;"/>
        </g>
        <g id="Arms" transform="matrix(0.86578,0,0,0.91816,106.008,63.0382)">
            <g>
                <path id="Right-Arm" serif:id="Right Arm" d="M789.806,770.263C789.806,770.263 775.006,842.891 774.552,851.414C774.099,859.937 653.139,852.788 653.139,852.788L652.871,829.938L657.768,786.927L789.806,770.263Z" style="fill:rgb(201,114,76);"/>
                <clipPath id="_clip1">
                    <path id="Right-Arm1" serif:id="Right Arm" d="M789.806,770.263C789.806,770.263 775.006,842.891 774.552,851.414C774.099,859.937 653.139,852.788 653.139,852.788L652.871,829.938L657.768,786.927L789.806,770.263Z"/>
                </clipPath>
                <g clip-path="url(#_clip1)">
                    <g id="Right-Arm-Reflection" serif:id="Right Arm Reflection" transform="matrix(1.15503,0,0,1.08913,82.9783,509.308)">
                        <path d="M583.087,332.03C584.144,347.777 475.557,347.777 476.614,332.03C477.067,325.268 477.803,320.17 479.533,315.911C481.48,311.117 484.548,307.194 487.222,299.498C493.313,281.961 489.831,256.687 490.44,237.402L554.547,228.193L596.119,232.699C596.728,251.984 582.634,325.268 583.087,332.03Z" style="fill:white;fill-opacity:0.15;"/>
                    </g>
                </g>
                <path id="Right-Arm2" serif:id="Right Arm" d="M789.806,770.263C789.806,770.263 775.006,842.891 774.552,851.414C774.099,859.937 653.139,852.788 653.139,852.788L652.871,829.938L657.768,786.927L789.806,770.263Z" style="fill:none;stroke:black;stroke-width:3.27px;"/>
                <g id="Left-Arm" serif:id="Left Arm" transform="matrix(-1,0,0,1,927.535,0)">
                    <path d="M789.806,770.263C789.806,770.263 775.006,842.891 774.552,851.414C774.099,859.937 653.139,852.788 653.139,852.788L652.871,829.938L657.768,786.927L789.806,770.263Z" style="fill:rgb(201,114,76);"/>
                    <clipPath id="_clip2">
                        <path d="M789.806,770.263C789.806,770.263 775.006,842.891 774.552,851.414C774.099,859.937 653.139,852.788 653.139,852.788L652.871,829.938L657.768,786.927L789.806,770.263Z"/>
                    </clipPath>
                    <g clip-path="url(#_clip2)">
                        <g id="Left-Arm-Reflection" serif:id="Left Arm Reflection" transform="matrix(1.15503,0,0,1.08913,82.9783,509.308)">
                            <path d="M583.087,332.03C584.144,347.777 475.557,347.777 476.614,332.03C477.067,325.268 477.803,320.17 479.533,315.911C481.48,311.117 484.548,307.194 487.222,299.498C493.313,281.961 489.831,256.687 490.44,237.402L554.547,228.193L596.119,232.699C596.728,251.984 582.634,325.268 583.087,332.03Z" style="fill:white;fill-opacity:0.15;"/>
                        </g>
                    </g>
                    <path d="M789.806,770.263C789.806,770.263 775.006,842.891 774.552,851.414C774.099,859.937 653.139,852.788 653.139,852.788L652.871,829.938L657.768,786.927L789.806,770.263Z" style="fill:none;stroke:black;stroke-width:3.27px;"/>
                </g>
            </g>
        </g>
        <g id="Neck">
            <g>
                <path id="Neck-Base" serif:id="Neck Base" d="M431.817,396.085L431.661,536.582L579.697,537.77L581.154,394.253L431.817,396.085Z" style="fill:rgb(201,114,76);"/>
                <clipPath id="_clip3">
                    <path id="Neck-Base1" serif:id="Neck Base" d="M431.817,396.085L431.661,536.582L579.697,537.77L581.154,394.253L431.817,396.085Z"/>
                </clipPath>
                <g clip-path="url(#_clip3)">
                    <g id="Neck-Reflection" serif:id="Neck Reflection" transform="matrix(0.834619,0,0,1,83.8646,0)">
                        <path d="M431.817,396.085L431.661,536.582L579.697,537.77L581.154,394.253L431.817,396.085Z" style="fill:white;fill-opacity:0.15;"/>
                    </g>
                </g>
                <path id="Neck-Base2" serif:id="Neck Base" d="M431.817,396.085L431.661,536.582L579.697,537.77L581.154,394.253L431.817,396.085Z" style="fill:none;stroke:black;stroke-width:5px;stroke-linecap:butt;stroke-linejoin:miter;stroke-miterlimit:1.5;"/>
            </g>
        </g>
        <g id="Shirt">
            <g>
                <path d="M507.42,532.722C553.792,531.703 576.74,507.538 585.012,465.446L604.418,479.57C656.026,499.88 704.886,520.705 749.661,545.187C760.017,556.026 771.836,588.132 776.66,621.673C780.892,651.094 780.535,684.127 783.795,712.01C787.522,743.891 796.851,769.417 797.195,773.843C777.989,791.677 732.311,795.338 675.099,795.056L674.238,710.554L673.86,851.588L340.98,851.588L340.602,710.554L339.741,795.056C282.529,795.338 236.851,791.677 217.646,773.843C217.989,769.417 227.318,743.891 231.046,712.01C234.306,684.127 233.949,651.094 238.18,621.673C243.004,588.132 256.149,555.428 266.505,544.588C311.28,520.106 355.814,499.88 407.422,479.57L426.828,465.446C435.1,507.538 461.048,531.703 507.42,532.722Z" style="fill:rgb(247,5,5);stroke:black;stroke-width:5px;stroke-miterlimit:1.5;"/>
            </g>
        </g>
        <g id="Face">
            <path id="Face1" serif:id="Face" d="M506.805,190.867C538.955,188.955 564.798,199.263 585.055,220.389C597.419,241.687 609.263,263.68 605.192,306.952L582.84,406.847C569.351,433.534 551.58,454.498 515.469,458.597L498.142,458.597C462.031,454.498 444.259,433.534 430.771,406.847L408.418,306.952C404.348,263.68 416.192,241.687 428.556,220.389C448.812,199.263 474.655,188.955 506.805,190.867Z" style="fill:rgb(201,114,76);"/>
            <clipPath id="_clip4">
                <path id="Face2" serif:id="Face" d="M506.805,190.867C538.955,188.955 564.798,199.263 585.055,220.389C597.419,241.687 609.263,263.68 605.192,306.952L582.84,406.847C569.351,433.534 551.58,454.498 515.469,458.597L498.142,458.597C462.031,454.498 444.259,433.534 430.771,406.847L408.418,306.952C404.348,263.68 416.192,241.687 428.556,220.389C448.812,199.263 474.655,188.955 506.805,190.867Z"/>
            </clipPath>
            <g clip-path="url(#_clip4)">
                <g id="Face3" serif:id="Face" transform="matrix(0.761535,0,0,1,120.717,0)">
                    <path d="M506.805,190.867C538.955,188.955 564.798,199.263 585.055,220.389C597.419,241.687 609.263,263.68 605.192,306.952L582.84,406.847C569.351,433.534 551.58,454.498 515.469,458.597L498.142,458.597C462.031,454.498 444.259,433.534 430.771,406.847L408.418,306.952C404.348,263.68 416.192,241.687 428.556,220.389C448.812,199.263 474.655,188.955 506.805,190.867Z" style="fill:white;fill-opacity:0.15;"/>
                </g>
            </g>
            <path id="Face4" serif:id="Face" d="M506.805,190.867C538.955,188.955 564.798,199.263 585.055,220.389C597.419,241.687 609.263,263.68 605.192,306.952L582.84,406.847C569.351,433.534 551.58,454.498 515.469,458.597L498.142,458.597C462.031,454.498 444.259,433.534 430.771,406.847L408.418,306.952C404.348,263.68 416.192,241.687 428.556,220.389C448.812,199.263 474.655,188.955 506.805,190.867Z" style="fill:none;stroke:black;stroke-width:5px;stroke-linecap:butt;stroke-linejoin:miter;stroke-miterlimit:1.5;"/>
            <g id="Layer4">
                <g>
                    <g id="Side-Hair" serif:id="Side Hair">
                        <g>
                            <path id="Right-Hair-Side" serif:id="Right Hair Side" d="M581.354,252.132C590.912,262.007 586.458,283.301 585.576,284.893C584.208,287.363 583.147,290.396 584.809,292.678C591.569,301.966 599.395,319.464 595.369,335.28L600.885,335.257C606.354,313.377 607.942,290.111 607.096,265.975L581.354,252.132Z" style="fill:url(#_Linear5);"/>
                            <g id="Left-Hair-Side" serif:id="Left Hair Side" transform="matrix(-1,0,0,1,1013.66,0)">
                                <path d="M581.354,252.132C590.912,262.007 585.458,283.301 584.576,284.893C583.208,287.363 582.147,290.396 583.809,292.678C590.569,301.966 599.395,319.464 595.369,335.28L600.885,335.257C606.354,313.377 607.942,290.111 607.096,265.975L581.354,252.132Z" style="fill:url(#_Linear6);"/>
                            </g>
                        </g>
                    </g>
                    <path id="Hair-Top" serif:id="Hair Top" d="M401.594,238.226C402.631,244.167 405.393,266.596 405.693,267.03C405.853,267.261 428.765,257.682 432.755,252.111C484.523,238.527 533.607,238.978 580.157,251.523C585.58,252.742 596.374,264.733 603.666,266.104C604.936,266.343 606.222,266.473 607.221,265.913C608.19,265.368 608.202,262.782 608.753,260.937C610.989,253.454 610.962,239.344 610.962,239.344L613.172,222.587C611.631,220.651 611.629,217.356 610.211,215.246C608.66,212.94 606.375,212.026 604.77,209.578C603.387,207.469 603.336,204.255 602.71,201.263C601.069,200.949 599.897,198.986 598.418,198.386C597.045,197.829 595.315,198.342 593.878,197.732C591.992,196.931 590.448,194.909 589.235,193.143C587.38,192.946 586.189,191.456 584.481,190.759C582.965,190.14 581.359,190.753 579.9,189.72C578.207,188.522 576.698,185.545 575.552,182.747L562.863,178.748C563.077,175.582 562.406,173.631 561.1,172.553C559.647,170.837 557.675,170.326 556.104,169.144C553.374,167.091 550.872,165.141 547.357,166.628C545.566,170.2 543.396,172.332 540.261,170.797L527.735,165.911C524.992,166.048 523.477,167.43 522.91,169.773L519.331,169.853C515.398,168.185 511.255,167.569 507.132,166.849C504.901,162.513 502.67,160.564 500.438,160.361C494.616,160.616 490.722,162.636 488.303,165.144C486.064,167.465 482.56,168.072 479.713,170.694C477.48,168.481 474.758,166.927 470.537,167.389C467.964,169.154 466.219,171.208 461.752,174.038C457.682,176.617 450.858,171.421 448.684,173.547C445.011,177.14 444.673,186.827 443.007,187.445L434.366,190.038C431.36,194.791 424.064,196.496 416.105,197.73L411.871,201.041C410.069,204.288 410.793,207.047 409.056,210.325C406.296,215.535 402.123,219.457 401.305,225.603L405.782,233.65L401.594,238.226Z" style="fill:url(#_Linear7);stroke:black;stroke-width:0.42px;"/>
                </g>
            </g>
            <g id="Soul-Patch" serif:id="Soul Patch">
                <path d="M506.346,449.042C515.238,449.04 522.432,447.834 528.561,446.122C532.398,449.148 536.339,451.79 540.316,454.298C534.925,464.249 525.78,471.529 506.346,471.487C486.912,471.529 477.767,464.249 472.376,454.298C476.353,451.79 480.294,449.148 484.132,446.122C490.261,447.834 497.455,449.04 506.346,449.042Z"/>
            </g>
            <g transform="matrix(1,0,0,-1,0,844.608)">
                <g id="Moustache">
                    <path d="M466.091,457.156C470.025,457.838 489.173,461.141 508.082,461.011C521.743,460.918 535.7,457.967 547.408,456.992C536.859,464.136 522.264,467.078 508.163,466.913C492.55,466.73 477.092,463.948 466.091,457.156Z" style="fill-opacity:0.5;"/>
                </g>
            </g>
            <g id="Forehead-Reflection" serif:id="Forehead Reflection">
                <g>
                    <path d="M569.307,242.918C569.306,258.525 567.614,276.921 570.488,291.85L561.592,300.968L527.778,302.555C524.116,303.951 519.526,308.812 513.965,317.305C508.883,315.527 503.959,315.479 499.222,317.469C494.89,310.568 490.575,305.023 486.304,302.937C472.33,298.022 459.405,298.428 447.306,303.032L441.611,294.601C445.69,277.612 442.929,255.306 443.437,237.808L501.656,230.867L569.307,242.918Z" style="fill:url(#_Linear8);"/>
                </g>
            </g>
            <g id="Nose">
                <g id="Nose-Side" serif:id="Nose Side">
                    <path d="M514.095,317.568C514.346,322.149 514.832,326.431 514.489,330.499C513.801,338.651 520.728,352.552 527.013,350.669L514.095,317.568Z" style="fill:rgb(201,114,76);"/>
                </g>
                <g id="Nose-Dots" serif:id="Nose Dots" opacity="0.27">
                    <g transform="matrix(1,0,0,-1,1.58178,718.209)">
                        <path d="M510.578,357.765L512.77,359.515" style="fill:none;stroke:white;stroke-width:4.17px;"/>
                    </g>
                    <g transform="matrix(-1,0,0,-1,1010.93,718.209)">
                        <path d="M510.578,357.765L512.77,359.515" style="fill:none;stroke:white;stroke-width:4.17px;"/>
                    </g>
                </g>
                <g id="Nostrils">
                    <g>
                        <path d="M487.343,352.581C478.328,363.026 481.305,366.909 493.199,364.389L504.084,370.403L508.913,370.403" style="fill:none;stroke:black;stroke-width:5px;"/>
                        <g transform="matrix(-1,0,0,1,1013,0)">
                            <path d="M487.343,352.581C478.328,363.026 481.305,366.909 493.199,364.389L504.084,370.403L508.913,370.403" style="fill:none;stroke:black;stroke-width:5px;"/>
                        </g>
                    </g>
                </g>
            </g>
            <g id="Wrinkles">
                <g id="Upper-Wrinkles" serif:id="Upper Wrinkles" opacity="0.61">
                    <g transform="matrix(1,0,0,1,1.67944,2.43465)">
                        <path d="M515.193,318.505C519.154,322.682 524.472,326.002 529.833,328.079" style="fill:none;stroke:rgb(201,114,76);stroke-width:4.17px;"/>
                    </g>
                    <g transform="matrix(-1,0,0,1,1010.71,2.43465)">
                        <path d="M515.193,318.505C519.154,322.682 524.472,326.002 529.833,328.079" style="fill:none;stroke:rgb(201,114,76);stroke-width:4.17px;"/>
                    </g>
                    <g transform="matrix(0.839582,0.543233,0.543233,-0.839582,-106.019,273.631)">
                        <path d="M515.193,318.505C519.154,322.682 524.472,326.002 529.833,328.079" style="fill:none;stroke:rgb(201,114,76);stroke-width:4.17px;"/>
                    </g>
                </g>
                <g id="Mouth-Wrinkles" serif:id="Mouth Wrinkles">
                    <g>
                        <g transform="matrix(1,0,0,-1,-49.3206,702.019)">
                            <path d="M511.952,311.128C512.319,316.014 517.375,333.376 524.787,335.048" style="fill:none;stroke:rgb(201,114,76);stroke-width:4.17px;"/>
                        </g>
                        <g transform="matrix(-1,0,0,-1,1062.42,702.019)">
                            <path d="M511.952,311.128C512.319,316.014 517.375,333.376 524.787,335.048" style="fill:none;stroke:rgb(201,114,76);stroke-width:4.17px;"/>
                        </g>
                    </g>
                </g>
                <g transform="matrix(1,0,0,-1,4,856.036)">
                    <g id="Chin-Wrinkle" serif:id="Chin Wrinkle">
                        <path d="M487.839,427.197C499.254,431.46 510.668,431.847 522.083,426.574" style="fill:none;stroke:rgb(201,114,76);stroke-width:4.17px;"/>
                    </g>
                </g>
            </g>
            <g id="Eyebrows">
                <path id="Right-Eyebrow" serif:id="Right Eyebrow" d="M523.738,305.02C533.861,301.601 544.426,300.918 554.496,302.211C565.508,304.741 572.515,309.307 579.377,314.105C572.568,305.377 565.721,299.095 557.067,297.731C550.409,296.86 543.185,296.202 536.085,297.13C530.075,298.681 526.025,301.796 523.738,305.02Z" style="stroke:black;stroke-width:0.42px;"/>
                <g id="Left-Eyebrow" serif:id="Left Eyebrow" transform="matrix(-1,0,0,1,1013.11,0)">
                    <path d="M523.738,305.02C533.861,301.601 544.426,300.918 554.496,302.211C565.508,304.741 572.515,309.307 579.377,314.105C572.568,305.377 565.721,299.095 557.067,297.731C550.409,296.86 543.185,296.202 536.085,297.13C530.075,298.681 526.025,301.796 523.738,305.02Z" style="stroke:black;stroke-width:0.42px;"/>
                </g>
            </g>
            <g id="Mouth">
                <path d="M472.97,393.033C495.279,389.325 519.143,388.555 540.54,392.75C530.633,401.728 519.49,406.699 506.701,406.335C489.85,405.372 480.283,400.196 472.97,393.033Z" style="fill:white;stroke:black;stroke-width:5px;"/>
            </g>
            <g id="Eyes">
                <g transform="matrix(0.903923,0,0,1.0698,37.1147,-34.2008)">
                    <ellipse cx="475.203" cy="330.502" rx="7.785" ry="6.871" style="fill:rgb(118,45,1);"/>
                    <path d="M475.203,323.631C479.499,323.631 482.988,326.709 482.988,330.502C482.988,334.294 479.499,337.373 475.203,337.373C470.906,337.373 467.418,334.294 467.418,330.502C467.418,326.709 470.906,323.631 475.203,323.631ZM475.203,326.357C477.759,326.357 479.761,328.246 479.761,330.502C479.761,332.757 477.759,334.646 475.203,334.646C472.647,334.646 470.645,332.757 470.645,330.502C470.645,328.246 472.647,326.357 475.203,326.357Z"/>
                </g>
                <g transform="matrix(-0.933812,0,0,1.04746,989.761,-26.6733)">
                    <ellipse cx="475.203" cy="330.502" rx="7.785" ry="6.871" style="fill:rgb(118,45,1);"/>
                    <path d="M475.203,323.631C479.499,323.631 482.988,326.709 482.988,330.502C482.988,334.294 479.499,337.373 475.203,337.373C470.906,337.373 467.418,334.294 467.418,330.502C467.418,326.709 470.906,323.631 475.203,323.631ZM475.203,326.415C472.639,326.415 470.542,328.238 470.542,330.502C470.542,332.765 472.639,334.588 475.203,334.588C477.767,334.588 479.864,332.765 479.864,330.502C479.864,328.238 477.767,326.415 475.203,326.415Z"/>
                </g>
                <g transform="matrix(1,0,0,1,0.0564878,0.62005)">
                    <path d="M445.802,321.466C460.276,308.993 476.226,308.662 486.956,321.602" style="fill:none;stroke:black;stroke-width:6.25px;stroke-linecap:butt;stroke-linejoin:miter;stroke-miterlimit:1.5;"/>
                </g>
                <g transform="matrix(-1,0,0,1,1012.81,0.62005)">
                    <path d="M445.802,321.466C460.276,308.993 476.226,308.662 486.956,321.602" style="fill:none;stroke:black;stroke-width:6.25px;stroke-linecap:butt;stroke-linejoin:miter;stroke-miterlimit:1.5;"/>
                </g>
            </g>
        </g>
    </g>
    <defs>
        <linearGradient id="_Linear5" x1="0" y1="0" x2="1" y2="0" gradientUnits="userSpaceOnUse" gradientTransform="matrix(7.03015e-05,140.278,-140.278,7.03015e-05,508.166,228.019)"><stop offset="0" style="stop-color:black;stop-opacity:1"/><stop offset="1" style="stop-color:black;stop-opacity:0.13"/></linearGradient>
        <linearGradient id="_Linear6" x1="0" y1="0" x2="1" y2="0" gradientUnits="userSpaceOnUse" gradientTransform="matrix(7.03015e-05,140.278,-140.278,7.03015e-05,508.166,228.019)"><stop offset="0" style="stop-color:black;stop-opacity:1"/><stop offset="1" style="stop-color:black;stop-opacity:0.13"/></linearGradient>
        <linearGradient id="_Linear7" x1="0" y1="0" x2="1" y2="0" gradientUnits="userSpaceOnUse" gradientTransform="matrix(-0.301816,-249.001,207.84,-0.251925,513.089,405.391)"><stop offset="0" style="stop-color:black;stop-opacity:1"/><stop offset="0.2" style="stop-color:black;stop-opacity:1"/><stop offset="0.42" style="stop-color:black;stop-opacity:1"/><stop offset="1" style="stop-color:black;stop-opacity:1"/></linearGradient>
        <linearGradient id="_Linear8" x1="0" y1="0" x2="1" y2="0" gradientUnits="userSpaceOnUse" gradientTransform="matrix(-0.468924,117.149,-117.149,-0.468924,511.82,216.745)"><stop offset="0" style="stop-color:white;stop-opacity:0"/><stop offset="0.65" style="stop-color:white;stop-opacity:0.07"/><stop offset="0.84" style="stop-color:white;stop-opacity:0.25"/><stop offset="1" style="stop-color:white;stop-opacity:0.47"/></linearGradient>
    </defs>
</svg>
